<?xml version="1.0" encoding="UTF-8"?><svg id="Layer_1" xmlns="http://www.w3.org/2000/svg" viewBox="0 0 389.1 522.29"><path d="M254.51,142.68c9.62-17.69,20.13-29.15,20.43-29.46,5.43-5.79,5.14-14.88-.63-20.31-5.79-5.45-14.89-5.17-20.33,.62-.49,.52-4.01,4.32-8.86,10.72-3.18-50.69-43.16-92.89-95.24-97.3L68.65,.05c-3.79-.33-7.57,.88-10.49,3.34-2.91,2.46-4.73,5.98-5.05,9.78l-2.47,29.16c-4.04,47.63,24.79,90.57,67.54,106.5C48.76,178.57,0,247.56,0,327.74c0,107.27,87.27,194.55,194.55,194.55s194.55-87.27,194.55-194.55c0-86.36-56.57-159.71-134.59-185.05h0ZM79.3,44.76l1.25-14.82,66.89,5.66c41.48,3.52,72.36,40.12,68.85,81.59l-1.26,14.82-66.89-5.66c-41.47-3.52-72.36-40.12-68.84-81.59h0Zm115.26,448.75c-91.41,0-165.79-74.37-165.79-165.79S103.14,161.93,194.56,161.93c6.94,0,13.77,.48,20.48,1.31-3.11,11.02-5.1,22.93-5.1,35.41,0,7.94,6.44,14.38,14.38,14.38s14.38-6.44,14.38-14.38c0-10.27,1.79-20.19,4.56-29.41,67.71,20.86,117.07,84,117.07,158.47,0,91.42-74.38,165.79-165.79,165.79h0Z"/></svg>