<?xml version="1.0" encoding="UTF-8"?><svg id="Layer_1" xmlns="http://www.w3.org/2000/svg" viewBox="0 0 459.52 540.97"><path d="M191.21,182.08c-4.22,0-8-2.63-9.46-6.59C144.79,75.43,70.57,60.55,69.76,60.43c-2.76-.34-5.25-1.81-6.89-4.05-1.64-2.24-2.28-5.06-1.77-7.79,.5-2.73,2.12-5.13,4.45-6.64,2.34-1.5,5.19-1.98,7.89-1.31,3.48,.62,86.3,17.23,127.18,127.87h0c1.14,3.09,.7,6.55-1.19,9.25-1.89,2.7-4.97,4.31-8.27,4.31h.07Z"/><path d="M252.81,321.39c-1.37,0-2.73-.27-3.98-.81-62.66-26.75-86.18-64.71-94.89-91.96-18.7,27.16-45.68,47.54-76.91,58.12-20.59,7.59-42.23,11.98-64.15,13-2.88,0-5.62-1.2-7.59-3.3-1.95-2.14-2.88-5.02-2.55-7.9,4.05-36.77,42.12-71.12,66.27-89.79C.63,180.77,0,132.36,0,130.31c0-3.98,2.33-7.59,5.96-9.21,3.63-1.63,7.88-.97,10.84,1.68,16.18,14.44,37.33,15.18,52.27,13.32h0c7.74-1.02,15.3-3.12,22.46-6.22,23.8-10.33,49.83-14.48,75.66-12.07,15.61-20.71,36.2-37.15,59.86-47.79,7.16-3.2,13.84-7.39,19.85-12.44,11.45-9.77,24.89-25.94,25.32-47.6,.05-3.97,2.42-7.54,6.05-9.13,3.64-1.58,7.87-.88,10.81,1.79,1.68,1.49,36.96,34.66,4.42,97.5,29.93-5.48,80.89-10.45,110.94,11.26,2.34,1.7,3.84,4.32,4.12,7.21,.27,2.88-.7,5.74-2.68,7.85-15.52,15.56-33.34,28.63-52.83,38.77-28.92,15.89-62.21,21.98-94.89,17.36,14.25,24.89,26.57,67.76,4.17,132.1h0c-1.41,4.06-5.23,6.78-9.52,6.78v-.07Zm-93.71-135.58c.72-.08,1.45-.08,2.18,0,4.95,1.11,8.31,5.71,7.84,10.77,0,2.55-3.8,61.41,77.53,100.74,25.82-87.42-21.84-124.75-22.34-125.13-3.47-3.21-4.24-8.41-1.85-12.5,2.39-4.08,7.3-5.95,11.81-4.49,65.09,27.13,124.45-14.38,146.91-33.72-32.42-12.44-85.99-2.55-105.78,3.17-4.09,1.14-8.46-.39-10.92-3.85-2.46-3.45-2.5-8.09-.09-11.58,21.84-31.86,24.27-55.07,21.47-70.25-6.08,12.98-14.96,24.46-26.01,33.6-7.44,6.22-15.71,11.38-24.57,15.31-22.18,9.69-41.18,25.43-54.82,45.42-2.18,3.75-6.52,5.68-10.76,4.79-23.84-3.25-48.11,.18-70.12,9.89-8.89,3.88-18.27,6.52-27.88,7.84-14.22,2.02-28.71,.88-42.44-3.36,9.33,12.45,28.19,26.07,66.45,31.11h0c4.29,.51,7.77,3.69,8.68,7.91s-.99,8.55-4.69,10.76c-17.73,11.01-61.23,43.55-73.67,76.29,29.43-3.92,99.93-19.85,123.32-85.99,1.45-4.12,5.4-6.83,9.77-6.72h0Z"/><path d="M315.66,540.97c-105.78,0-190.65-68.45-194.57-71.49C5.86,381.74,37.78,285.35,39.15,281.31c1.94-5.09,7.57-7.71,12.71-5.93,5.14,1.78,7.94,7.32,6.32,12.52-1.25,3.73-27.88,87.11,75.35,165.76,1.25,1,99.87,80.02,211.06,65.21,85.93-72.36,93.65-198.36,93.71-199.61,11.32-129.8-68.45-166.13-71.93-167.62h0c-5.16-2.18-7.57-8.13-5.38-13.29,2.18-5.15,8.13-7.56,13.29-5.38,3.98,1.68,96.69,42.87,84.06,187.54,0,5.29-8.4,137.88-103.16,215.6-.76,.61-1.59,1.12-2.49,1.49-.8,.32-1.63,.55-2.49,.68-11.43,1.73-22.97,2.63-34.53,2.68h0Z"/><path d="M377.32,221.84c-4.04-.04-7.66-2.49-9.21-6.22l-5.04-11.32c-2.25-5.16,.1-11.16,5.26-13.41,5.15-2.25,11.16,.11,13.41,5.26l5.04,11.32c1.36,3.11,1.07,6.7-.79,9.55-1.86,2.85-5.02,4.57-8.42,4.57l-.25,.25Z"/><path d="M360.89,277.34c-4.04-.04-7.66-2.49-9.21-6.22l-5.04-11.32h0c-2.25-5.16,.11-11.16,5.26-13.41,5.16-2.25,11.16,.1,13.41,5.26l5.04,11.32c1.5,3.18,1.23,6.91-.7,9.84-1.93,2.93-5.25,4.65-8.76,4.54h0Z"/><path d="M309.25,251.89c-4.04-.04-7.66-2.49-9.21-6.22l-5.04-11.32h0c-2.25-5.16,.11-11.16,5.26-13.41,5.16-2.25,11.16,.1,13.41,5.26l5.04,11.32c1.36,3.11,1.07,6.7-.79,9.55-1.86,2.85-5.02,4.57-8.42,4.57l-.25,.25Z"/><path d="M413.84,304.53c-4.11,.04-7.82-2.43-9.39-6.22l-5.04-11.32h0c-2.25-5.16,.1-11.16,5.26-13.41s11.16,.1,13.41,5.26l5.04,11.45c1.43,3.13,1.15,6.78-.73,9.66-1.88,2.89-5.1,4.62-8.54,4.58h0Z"/><path d="M397.73,359.97c-4.04-.04-7.66-2.49-9.21-6.22l-5.04-11.32c-2.25-5.15,.11-11.16,5.26-13.41,5.16-2.25,11.16,.11,13.41,5.26l5.04,11.32h0c1.36,3.11,1.07,6.7-.79,9.55-1.86,2.85-5.02,4.57-8.42,4.57l-.25,.25Z"/><path d="M345.77,334.52c-4.04-.04-7.66-2.49-9.21-6.22l-4.98-11.32c-2.25-5.15,.11-11.16,5.26-13.41,5.16-2.25,11.16,.1,13.41,5.26l5.04,11.32c1.36,3.11,1.07,6.7-.79,9.55-1.86,2.85-5.02,4.57-8.42,4.57l-.31,.25Z"/><path d="M173.17,312.12c-4.04-.04-7.66-2.49-9.21-6.22l-5.04-11.32c-2.25-5.16,.1-11.16,5.26-13.41,5.15-2.25,11.16,.11,13.41,5.26l5.04,11.32h0c1.36,3.11,1.07,6.7-.79,9.55-1.86,2.85-5.02,4.57-8.42,4.57l-.25,.25Z"/><path d="M157.05,367.62c-4.04-.04-7.66-2.49-9.21-6.22l-5.04-11.32c-2.25-5.15,.11-11.16,5.26-13.41,5.16-2.25,11.16,.1,13.41,5.26l5.04,11.32c1.36,3.11,1.07,6.7-.79,9.55-1.86,2.85-5.02,4.57-8.42,4.58l-.25,.25Z"/><path d="M105.09,342.17c-4.04-.04-7.66-2.49-9.21-6.22l-5.04-11.32h0c-2.25-5.16,.1-11.16,5.26-13.41,5.15-2.25,11.16,.1,13.41,5.26l5.04,11.32h0c1.36,3.11,1.07,6.7-.79,9.55-1.86,2.84-5.02,4.57-8.42,4.57l-.25,.25Z"/><path d="M209.69,394.75c-4.04-.04-7.66-2.49-9.21-6.22l-5.04-11.32c-2.25-5.15,.1-11.16,5.26-13.41,5.16-2.25,11.16,.1,13.41,5.26l5.04,11.32c1.5,3.18,1.23,6.91-.7,9.84-1.93,2.93-5.25,4.65-8.76,4.53h0Z"/><path d="M193.57,450.26c-4.04-.04-7.66-2.49-9.21-6.22l-5.04-11.32c-2.25-5.16,.1-11.16,5.25-13.41,5.16-2.25,11.16,.11,13.41,5.26l5.04,11.32c1.36,3.11,1.07,6.7-.79,9.55-1.86,2.85-5.02,4.57-8.42,4.57l-.25,.25Z"/><path d="M141.62,424.81c-4.04-.04-7.66-2.49-9.21-6.22l-5.04-11.32c-2.25-5.16,.1-11.16,5.26-13.41,5.15-2.25,11.16,.11,13.41,5.26l5.04,11.32c1.36,3.11,1.07,6.7-.79,9.55-1.86,2.85-5.02,4.57-8.42,4.57l-.25,.25Z"/><path d="M329.78,390.09c-4.04-.04-7.66-2.49-9.21-6.22l-5.1-10.89c-2.25-5.15,.1-11.16,5.26-13.41,5.15-2.25,11.16,.1,13.41,5.26l5.04,11.32c1.29,3.12,.93,6.69-.95,9.49-1.89,2.8-5.06,4.47-8.44,4.45h0Z"/><path d="M277.76,364.64c-4.04-.04-7.66-2.49-9.21-6.22l-5.04-11.32h0c-2.25-5.16,.11-11.16,5.26-13.41,5.16-2.25,11.16,.11,13.41,5.26l5.04,11.32c1.36,3.11,1.07,6.7-.79,9.55-1.86,2.85-5.02,4.57-8.42,4.57l-.25,.25Z"/><path d="M277.76,364.64c-4.04-.04-7.66-2.49-9.21-6.22l-5.04-11.32h0c-2.25-5.16,.11-11.16,5.26-13.41,5.16-2.25,11.16,.11,13.41,5.26l5.04,11.32c1.36,3.11,1.07,6.7-.79,9.55-1.86,2.85-5.02,4.57-8.42,4.57l-.25,.25Z"/><path d="M261.34,420.2c-4.04-.04-7.66-2.49-9.21-6.22l-5.04-11.32c-2.25-5.15,.1-11.16,5.26-13.41,5.16-2.25,11.16,.1,13.41,5.26l5.04,11.32c1.5,3.18,1.23,6.9-.7,9.84-1.93,2.93-5.25,4.65-8.76,4.53h0Z"/><path d="M365.5,471.1c-4.04-.04-7.66-2.49-9.21-6.22l-5.04-11.01c-2.25-5.16,.1-11.16,5.26-13.41s11.16,.11,13.41,5.26l5.04,11.32c1.36,3.11,1.07,6.7-.79,9.55-1.86,2.85-5.02,4.57-8.42,4.57l-.25-.06Z"/><path d="M297.43,501.22c-4.04-.04-7.66-2.49-9.21-6.22l-5.04-11.32c-2.25-5.16,.1-11.16,5.26-13.41,5.15-2.25,11.16,.1,13.41,5.26l5.04,11.32h0c1.36,3.11,1.07,6.7-.79,9.55s-5.02,4.57-8.42,4.57l-.25,.25Z"/><path d="M209.69,394.75c-4.04-.04-7.66-2.49-9.21-6.22l-5.04-11.32c-2.25-5.15,.1-11.16,5.26-13.41,5.16-2.25,11.16,.1,13.41,5.26l5.04,11.32c1.5,3.18,1.23,6.91-.7,9.84-1.93,2.93-5.25,4.65-8.76,4.53h0Z"/><path d="M381.61,415.54c-4.04-.04-7.66-2.49-9.21-6.22l-5.29-11.08c-2.25-5.15,.1-11.16,5.26-13.41,5.15-2.25,11.16,.1,13.41,5.26l5.04,11.32c1.36,3.11,1.07,6.7-.79,9.55-1.86,2.85-5.02,4.57-8.42,4.58h0Z"/><path d="M245.53,475.77c-4.04-.04-7.66-2.49-9.21-6.22l-5.04-11.32c-2.25-5.16,.11-11.16,5.26-13.41,5.16-2.25,11.16,.11,13.41,5.26l5.04,11.32c1.36,3.11,1.07,6.7-.79,9.55-1.86,2.85-5.02,4.57-8.42,4.57l-.25,.25Z"/><path d="M313.54,445.65c-4.04-.04-7.66-2.49-9.21-6.22l-5.04-11.32h0c-2.25-5.15,.11-11.16,5.26-13.41,5.16-2.25,11.16,.1,13.41,5.26l5.04,11.32c1.36,3.11,1.07,6.7-.79,9.55-1.86,2.85-5.02,4.57-8.42,4.57l-.25,.25Z"/><path d="M313.54,445.65c-4.04-.04-7.66-2.49-9.21-6.22l-5.04-11.32h0c-2.25-5.15,.11-11.16,5.26-13.41,5.16-2.25,11.16,.1,13.41,5.26l5.04,11.32c1.36,3.11,1.07,6.7-.79,9.55-1.86,2.85-5.02,4.57-8.42,4.57l-.25,.25Z"/><path d="M245.53,475.77c-4.04-.04-7.66-2.49-9.21-6.22l-5.04-11.32c-2.25-5.16,.11-11.16,5.26-13.41,5.16-2.25,11.16,.11,13.41,5.26l5.04,11.32c1.36,3.11,1.07,6.7-.79,9.55-1.86,2.85-5.02,4.57-8.42,4.57l-.25,.25Z"/></svg>